<svg width="1170" height="185" viewBox="0 0 1170 185" fill="none" xmlns="http://www.w3.org/2000/svg">
<g clip-path="url(#clip0_1_42)">
<path d="M-1 2.56944H37.3039L54.3821 131.299H54.87L71.9482 2.56944H110.252V182.431H84.8788V46.25H84.3909L64.873 182.431H42.4274L22.9095 46.25H22.4215V182.431H-1V2.56944Z" fill="black"/>
<path d="M169.071 185C155.896 185 145.812 181.06 138.818 173.181C131.824 165.301 128.327 154.167 128.327 139.778V45.2222C128.327 30.8333 131.824 19.6991 138.818 11.8194C145.812 3.93981 155.896 0 169.071 0C182.245 0 192.33 3.93981 199.324 11.8194C206.318 19.6991 209.814 30.8333 209.814 45.2222V139.778C209.814 154.167 206.318 165.301 199.324 173.181C192.33 181.06 182.245 185 169.071 185ZM169.071 159.306C178.342 159.306 182.977 153.396 182.977 141.576V43.4236C182.977 31.6042 178.342 25.6944 169.071 25.6944C159.8 25.6944 155.164 31.6042 155.164 43.4236V141.576C155.164 153.396 159.8 159.306 169.071 159.306Z" fill="black"/>
<path d="M227.964 2.56944H261.632L287.737 110.229H288.225V2.56944H312.135V182.431H284.566L252.361 51.1319H251.873V182.431H227.964V2.56944Z" fill="black"/>
<path d="M370.873 185C357.699 185 347.615 181.06 340.621 173.181C333.627 165.301 330.13 154.167 330.13 139.778V45.2222C330.13 30.8333 333.627 19.6991 340.621 11.8194C347.615 3.93981 357.699 0 370.873 0C384.048 0 394.132 3.93981 401.126 11.8194C408.12 19.6991 411.617 30.8333 411.617 45.2222V139.778C411.617 154.167 408.12 165.301 401.126 173.181C394.132 181.06 384.048 185 370.873 185ZM370.873 159.306C380.145 159.306 384.78 153.396 384.78 141.576V43.4236C384.78 31.6042 380.145 25.6944 370.873 25.6944C361.602 25.6944 356.967 31.6042 356.967 43.4236V141.576C356.967 153.396 361.602 159.306 370.873 159.306Z" fill="black"/>
<path d="M429.767 2.56944H456.604V78.3681L490.76 2.56944H517.597L485.637 68.6042L518.085 182.431H490.028L467.339 102.264L456.604 125.132V182.431H429.767V2.56944Z" fill="black"/>
<path d="M530.787 2.56944H570.555C584.38 2.56944 594.464 5.99537 600.808 12.8472C607.151 19.5278 610.323 29.8912 610.323 43.9375V54.9861C610.323 73.6574 604.467 85.4769 592.756 90.4445V90.9583C599.262 93.0139 603.817 97.2107 606.419 103.549C609.184 109.887 610.567 118.366 610.567 128.986V160.59C610.567 165.729 610.729 169.926 611.054 173.181C611.38 176.264 612.193 179.347 613.494 182.431H586.169C585.193 179.519 584.543 176.778 584.217 174.208C583.892 171.639 583.729 167.014 583.729 160.333V127.444C583.729 119.222 582.428 113.484 579.826 110.229C577.386 106.975 573.076 105.347 566.895 105.347H557.624V182.431H530.787V2.56944ZM567.383 79.6528C572.751 79.6528 576.735 78.1968 579.338 75.2847C582.103 72.3727 583.485 67.4907 583.485 60.6389V46.7639C583.485 40.2546 582.347 35.544 580.07 32.632C577.955 29.7199 574.54 28.2639 569.823 28.2639H557.624V79.6528H567.383Z" fill="black"/>
<path d="M667.979 185C654.804 185 644.72 181.06 637.726 173.181C630.732 165.301 627.235 154.167 627.235 139.778V45.2222C627.235 30.8333 630.732 19.6991 637.726 11.8194C644.72 3.93981 654.804 0 667.979 0C681.153 0 691.237 3.93981 698.231 11.8194C705.225 19.6991 708.722 30.8333 708.722 45.2222V139.778C708.722 154.167 705.225 165.301 698.231 173.181C691.237 181.06 681.153 185 667.979 185ZM667.979 159.306C677.25 159.306 681.885 153.396 681.885 141.576V43.4236C681.885 31.6042 677.25 25.6944 667.979 25.6944C658.708 25.6944 654.072 31.6042 654.072 43.4236V141.576C654.072 153.396 658.708 159.306 667.979 159.306Z" fill="black"/>
<path d="M726.872 2.56944H765.175L782.254 131.299H782.742L799.82 2.56944H838.124V182.431H812.75V46.25H812.262L792.745 182.431H770.299L750.781 46.25H750.293V182.431H726.872V2.56944Z" fill="black"/>
<path d="M878.888 2.56944H915.24L943.053 182.431H916.216L911.337 146.715V147.229H880.84L875.961 182.431H851.075L878.888 2.56944ZM908.165 122.819L896.21 33.9167H895.722L884.012 122.819H908.165Z" fill="black"/>
<path d="M965.857 28.2639H937.8V2.56944H1020.75V28.2639H992.695V182.431H965.857V28.2639Z" fill="black"/>
<path d="M1033.75 2.56944H1060.58V182.431H1033.75V2.56944Z" fill="black"/>
<path d="M1080.68 2.56944H1107.52V78.3681L1141.67 2.56944H1168.51L1136.55 68.6042L1169 182.431H1140.94L1118.25 102.264L1107.52 125.132V182.431H1080.68V2.56944Z" fill="black"/>
</g>
<defs>
<clipPath id="clip0_1_42">
<rect width="1170" height="185" fill="white"/>
</clipPath>
</defs>
</svg>
